<svg id="Layer_2" data-name="Layer 2" xmlns="http://www.w3.org/2000/svg" xmlns:xlink="http://www.w3.org/1999/xlink" viewBox="0 0 103 125.23"><defs><style>.cls-1{fill:url(#radial-gradient);}.cls-2{fill:#fff;}.cls-3{font-size:18px;fill:#2c6290;font-family:TrebuchetMS, Trebuchet MS;}</style><radialGradient id="radial-gradient" cx="51.5" cy="51.5" r="51.5" gradientUnits="userSpaceOnUse"><stop offset="0" stop-color="#29abe2"/><stop offset="0.28" stop-color="#2a8dc0"/><stop offset="0.56" stop-color="#2b75a6"/><stop offset="0.81" stop-color="#2c6796"/><stop offset="1" stop-color="#2c6290"/></radialGradient></defs><circle class="cls-1" cx="51.5" cy="51.5" r="51.5"/><path class="cls-2" d="M76.21,48.93c1.47,12-6.16,22.88-17,24.2s-20.89-7.36-22.36-19.4" transform="translate(-28.5 -13)"/><path class="cls-2" d="M117.68,52.17c-.86,8.21-7.63,14.23-15.12,13.45s-12.86-8.08-12-16.3" transform="translate(-28.5 -13)"/><path d="M110.82,51.43a6.09,6.09,0,0,1-12.1-1.27" transform="translate(-28.5 -13)"/><path d="M66,50.11c.51,4.17-3.27,8.06-8.45,8.69s-9.8-2.23-10.31-6.4" transform="translate(-28.5 -13)"/><text class="cls-3" transform="translate(9.13 120.51)">Boredviser</text></svg>