<svg id="Layer_2" data-name="Layer 2" xmlns="http://www.w3.org/2000/svg" xmlns:xlink="http://www.w3.org/1999/xlink" viewBox="0 0 125.25 148.61"><defs><style>.cls-1{fill:url(#radial-gradient);}.cls-2{fill:#fff;}.cls-3{font-size:23.15px;fill:#2c6290;font-family:TrebuchetMS, Trebuchet MS;}</style><radialGradient id="radial-gradient" cx="62.62" cy="59.46" r="59.46" gradientUnits="userSpaceOnUse"><stop offset="0" stop-color="#29abe2"/><stop offset="0.28" stop-color="#2a8dc0"/><stop offset="0.56" stop-color="#2b75a6"/><stop offset="0.81" stop-color="#2c6796"/><stop offset="1" stop-color="#2c6290"/></radialGradient></defs><circle class="cls-1" cx="62.62" cy="59.46" r="59.46"/><path class="cls-2" d="M75.62,49.25c1.7,13.9-7.11,26.42-19.67,28S31.83,68.7,30.13,54.8" transform="translate(-17.38 -7.77)"/><path class="cls-2" d="M123.51,53c-1,9.48-8.81,16.43-17.46,15.52S91.2,59.19,92.19,49.71" transform="translate(-17.38 -7.77)"/><path d="M115.58,52.14a7,7,0,0,1-14-1.47" transform="translate(-17.38 -7.77)"/><path d="M63.78,50.61c.59,4.82-3.78,9.31-9.76,10s-11.31-2.58-11.9-7.39" transform="translate(-17.38 -7.77)"/><text class="cls-3" transform="translate(8.15 142.54)">Boredviser</text></svg>