<svg id="Layer_2" data-name="Layer 2" xmlns="http://www.w3.org/2000/svg" xmlns:xlink="http://www.w3.org/1999/xlink" viewBox="0 0 206.33 70.78"><defs><style>.cls-1{fill:url(#radial-gradient);}.cls-2{fill:#fff;}</style><radialGradient id="radial-gradient" cx="35.39" cy="35.39" r="35.39" gradientUnits="userSpaceOnUse"><stop offset="0" stop-color="#29abe2"/><stop offset="0.28" stop-color="#2a8dc0"/><stop offset="0.56" stop-color="#2b75a6"/><stop offset="0.81" stop-color="#2c6796"/><stop offset="1" stop-color="#2c6290"/></radialGradient></defs><circle class="cls-1" cx="35.39" cy="35.39" r="35.39"/><path class="cls-2" d="M33.57,69.3c1,8.27-4.23,15.72-11.71,16.63S7.51,80.87,6.5,72.6" transform="translate(-0.79 -44.61)"/><path class="cls-2" d="M62.08,71.53c-.6,5.64-5.25,9.78-10.4,9.24s-8.84-5.55-8.24-11.2" transform="translate(-0.79 -44.61)"/><path d="M57.36,71A4.18,4.18,0,0,1,49,70.14" transform="translate(-0.79 -44.61)"/><path d="M26.53,70.11c.35,2.86-2.25,5.54-5.81,6s-6.73-1.53-7.08-4.4" transform="translate(-0.79 -44.61)"/><path class="cls-2" d="M89.85,72.58a6.82,6.82,0,0,1,2.67.45,3.24,3.24,0,0,1,1.55,1.3,3.87,3.87,0,0,1,.5,2,4,4,0,0,1-.45,2A3.42,3.42,0,0,1,93,79.51a3.14,3.14,0,0,1-1.41.49,3.83,3.83,0,0,1,1.53.38,3.2,3.2,0,0,1,1.33,1.16A3.87,3.87,0,0,1,95,83.68a4.84,4.84,0,0,1-.51,2.25,3.6,3.6,0,0,1-1.63,1.57,6.68,6.68,0,0,1-3,.57H83.73V72.58Zm-3,7.17-1.08-.91h3.09a2.81,2.81,0,0,0,1.86-.53,1.79,1.79,0,0,0,.62-1.43,1.85,1.85,0,0,0-.26-1,1.61,1.61,0,0,0-.78-.58A3.86,3.86,0,0,0,89,75.1H85.37l1.47-1.55Zm2.35,5.79A2.68,2.68,0,0,0,91,85a1.92,1.92,0,0,0,.62-1.5,2.24,2.24,0,0,0-.18-.93,1.81,1.81,0,0,0-.52-.67,2.57,2.57,0,0,0-.81-.41,3.89,3.89,0,0,0-1.06-.14h-3.3l1.08-.9v6.65l-1.47-1.55Z" transform="translate(-0.79 -44.61)"/><path class="cls-2" d="M103.74,88.32A7,7,0,0,1,101,87.8a6.42,6.42,0,0,1-2.22-1.55,7.32,7.32,0,0,1-1.5-2.51,11.16,11.16,0,0,1,0-6.86,7.15,7.15,0,0,1,1.49-2.49A6.33,6.33,0,0,1,101,72.87a7.35,7.35,0,0,1,5.43,0,6.16,6.16,0,0,1,2.22,1.52,6.86,6.86,0,0,1,1.49,2.49,11.16,11.16,0,0,1,0,6.86,7,7,0,0,1-1.5,2.51,6.36,6.36,0,0,1-2.23,1.55A6.93,6.93,0,0,1,103.74,88.32Zm0-2.61a3.28,3.28,0,0,0,1.81-.54,3.63,3.63,0,0,0,1.34-1.72,8.32,8.32,0,0,0,.5-3.14,8,8,0,0,0-.51-3.13,3.59,3.59,0,0,0-1.33-1.69,3.41,3.41,0,0,0-3.62,0,3.54,3.54,0,0,0-1.34,1.69,10.08,10.08,0,0,0,0,6.27,3.63,3.63,0,0,0,1.34,1.72A3.25,3.25,0,0,0,103.74,85.71Z" transform="translate(-0.79 -44.61)"/><path class="cls-2" d="M112.85,88.07V72.58h6.28a5.2,5.2,0,0,1,3.64,1.11,4.13,4.13,0,0,1,1.2,3.19,4.27,4.27,0,0,1-.45,2,3.75,3.75,0,0,1-1.13,1.31,2.67,2.67,0,0,1-1.28.51,3.39,3.39,0,0,1,1.21.32,2.33,2.33,0,0,1,.94.88,3.08,3.08,0,0,1,.37,1.6v3a5.65,5.65,0,0,0,.07,1,1.53,1.53,0,0,0,.24.62h-3.26a1.74,1.74,0,0,1-.23-.63,5.49,5.49,0,0,1-.08-.94V83.92a2,2,0,0,0-.47-1.41,2,2,0,0,0-1.51-.5h-3.22l.87-1v7.1ZM116,80.68l-.87-1.19h3.26a2.19,2.19,0,0,0,1.12-.28,2,2,0,0,0,.78-.81,2.43,2.43,0,0,0,.29-1.23,2,2,0,0,0-.59-1.53,2.35,2.35,0,0,0-1.67-.55H115.1L116,74Z" transform="translate(-0.79 -44.61)"/><path class="cls-2" d="M128.05,75.1l1.47-1.55V80l-.74-.92h5.71v2.52h-5.71l.74-.92V87.1l-1.47-1.55h7.61v2.52h-9.42V72.58h9.42V75.1Z" transform="translate(-0.79 -44.61)"/><path class="cls-2" d="M138.22,88.07V72.58h5a7,7,0,0,1,2.83.56,6.43,6.43,0,0,1,2.19,1.59,7,7,0,0,1,1.42,2.44,10.27,10.27,0,0,1,0,6.27,7.12,7.12,0,0,1-1.42,2.46,6.33,6.33,0,0,1-2.19,1.6,6.88,6.88,0,0,1-2.83.57Zm3.28-1L140,85.55h2.78a3.55,3.55,0,0,0,2.05-.63,4.39,4.39,0,0,0,1.46-1.82,6.86,6.86,0,0,0,.53-2.8,6.77,6.77,0,0,0-.53-2.79,4.26,4.26,0,0,0-1.46-1.78,3.55,3.55,0,0,0-2.05-.63H140l1.47-1.55Z" transform="translate(-0.79 -44.61)"/><path class="cls-2" d="M154.71,88.1l-3.84-15.52h3.6l2.73,13.51h-.14l2.71-13.51h3.61l-3.8,15.52Z" transform="translate(-0.79 -44.61)"/><path class="cls-2" d="M165.15,88.07V72.58h3.22V88.07Z" transform="translate(-0.79 -44.61)"/><path class="cls-2" d="M176.18,88.32a7.74,7.74,0,0,1-3-.53,4.4,4.4,0,0,1-2-1.6,4.65,4.65,0,0,1-.72-2.66v-.61h3.26v.55a2.2,2.2,0,0,0,.61,1.66,2.52,2.52,0,0,0,1.81.58,3.68,3.68,0,0,0,1.86-.39,1.34,1.34,0,0,0,.65-1.26,1.46,1.46,0,0,0-.49-1.09,4.63,4.63,0,0,0-1.32-.85,17.26,17.26,0,0,0-1.91-.7,9.59,9.59,0,0,1-2.16-1,4.86,4.86,0,0,1-1.6-1.52,4,4,0,0,1-.61-2.28,3.72,3.72,0,0,1,.73-2.33,4.56,4.56,0,0,1,2-1.47,7.44,7.44,0,0,1,2.83-.51,7.75,7.75,0,0,1,2.91.51,4.41,4.41,0,0,1,2,1.52,4.27,4.27,0,0,1,.72,2.53v.63H178.5v-.48a2.1,2.1,0,0,0-.56-1.57,2.47,2.47,0,0,0-1.76-.55,3.22,3.22,0,0,0-1.79.42,1.46,1.46,0,0,0-.64,1.3,1.42,1.42,0,0,0,.46,1.07,4.41,4.41,0,0,0,1.25.79c.54.23,1.14.46,1.82.69a15.79,15.79,0,0,1,2.42,1.06,4.54,4.54,0,0,1,1.6,1.46,4,4,0,0,1,.57,2.23,3.88,3.88,0,0,1-.72,2.37,4.37,4.37,0,0,1-2,1.48A8,8,0,0,1,176.18,88.32Z" transform="translate(-0.79 -44.61)"/><path class="cls-2" d="M185.83,75.1l1.47-1.55V80l-.74-.92h5.71v2.52h-5.71l.74-.92V87.1l-1.47-1.55h7.61v2.52H184V72.58h9.42V75.1Z" transform="translate(-0.79 -44.61)"/><path class="cls-2" d="M196,88.07V72.58h6.28a5.22,5.22,0,0,1,3.64,1.11,4.81,4.81,0,0,1,.74,5.23,3.63,3.63,0,0,1-1.12,1.31,2.67,2.67,0,0,1-1.28.51,3.39,3.39,0,0,1,1.21.32,2.33,2.33,0,0,1,.94.88,3.08,3.08,0,0,1,.36,1.6v3a5.61,5.61,0,0,0,.08,1,1.4,1.4,0,0,0,.24.62h-3.27a2,2,0,0,1-.22-.63,5.49,5.49,0,0,1-.08-.94V83.92a2,2,0,0,0-.47-1.41,2,2,0,0,0-1.51-.5h-3.22l.87-1v7.1Zm3.19-7.39-.87-1.19h3.26a2.19,2.19,0,0,0,1.12-.28,2,2,0,0,0,.78-.81,2.43,2.43,0,0,0,.29-1.23,2,2,0,0,0-.59-1.53,2.34,2.34,0,0,0-1.66-.55h-3.27l.94-1.06Z" transform="translate(-0.79 -44.61)"/></svg>