<svg id="Layer_2" data-name="Layer 2" xmlns="http://www.w3.org/2000/svg" xmlns:xlink="http://www.w3.org/1999/xlink" viewBox="0 0 191.49 60.83"><defs><style>.cls-1{fill:url(#radial-gradient);}.cls-2,.cls-3{fill:#fff;}.cls-3{font-size:18px;font-family:TrebuchetMS-Bold, Trebuchet MS;font-weight:700;}.cls-4{letter-spacing:0.03em;}</style><radialGradient id="radial-gradient" cx="30.42" cy="30.42" r="30.42" gradientUnits="userSpaceOnUse"><stop offset="0" stop-color="#29abe2"/><stop offset="0.28" stop-color="#2a8dc0"/><stop offset="0.56" stop-color="#2b75a6"/><stop offset="0.81" stop-color="#2c6796"/><stop offset="1" stop-color="#2c6290"/></radialGradient></defs><circle class="cls-1" cx="30.42" cy="30.42" r="30.42"/><path class="cls-2" d="M32.12,70.8c.87,7.12-3.64,13.52-10.07,14.3S9.72,80.75,8.85,73.64" transform="translate(-3.94 -49.58)"/><path class="cls-2" d="M56.62,72.72c-.51,4.85-4.51,8.41-8.94,7.94S40.09,75.89,40.6,71" transform="translate(-3.94 -49.58)"/><path d="M52.56,72.28a3.6,3.6,0,0,1-7.15-.75" transform="translate(-3.94 -49.58)"/><path d="M26.06,71.5c.3,2.46-1.93,4.76-5,5.14S15.28,75.31,15,72.85" transform="translate(-3.94 -49.58)"/><text class="cls-3" transform="translate(65.65 36.9)">Bored<tspan class="cls-4" x="49.39" y="0">v</tspan><tspan x="59.44" y="0">iser</tspan></text></svg>