<svg id="Layer_2" data-name="Layer 2" xmlns="http://www.w3.org/2000/svg" xmlns:xlink="http://www.w3.org/1999/xlink" viewBox="0 0 184.42 70.78"><defs><style>.cls-1{fill:url(#radial-gradient);}.cls-2{fill:#fff;}.cls-3{font-size:18px;fill:#fcfcfc;font-family:TrebuchetMS-Bold, Trebuchet MS;font-weight:700;}</style><radialGradient id="radial-gradient" cx="35.39" cy="35.39" r="35.39" gradientUnits="userSpaceOnUse"><stop offset="0" stop-color="#29abe2"/><stop offset="0.28" stop-color="#2a8dc0"/><stop offset="0.56" stop-color="#2b75a6"/><stop offset="0.81" stop-color="#2c6796"/><stop offset="1" stop-color="#2c6290"/></radialGradient></defs><circle class="cls-1" cx="35.39" cy="35.39" r="35.39"/><path class="cls-2" d="M38.57,69.3c1,8.27-4.23,15.72-11.71,16.63S12.51,80.87,11.5,72.6" transform="translate(-5.79 -44.61)"/><path class="cls-2" d="M67.08,71.53c-.6,5.64-5.25,9.78-10.4,9.24s-8.84-5.55-8.24-11.2" transform="translate(-5.79 -44.61)"/><path d="M62.36,71A4.18,4.18,0,0,1,54,70.14" transform="translate(-5.79 -44.61)"/><path d="M31.53,70.11c.35,2.86-2.25,5.54-5.81,6s-6.73-1.53-7.08-4.4" transform="translate(-5.79 -44.61)"/><text class="cls-3" transform="translate(79.98 44.24)">BOREDVISER</text></svg>